<svg width="204" height="59" viewBox="0 0 204 59" fill="none" xmlns="http://www.w3.org/2000/svg">
<path d="M203.52 52.7868C203.52 55.9893 200.926 58.6276 197.676 58.6276H6.21762C2.9674 58.6276 0.373322 56.0046 0.373322 52.7868V6.19806C0.373322 3.01081 2.9674 0.372559 6.20236 0.372559H197.676C200.911 0.372559 203.52 2.96506 203.52 6.19806V52.7868Z" fill="black"/>
<path d="M44.9762 29.1646C44.9304 24.2541 49.0046 21.8446 49.1877 21.7531C46.8683 18.3981 43.2976 17.9406 42.0159 17.8948C39.0403 17.5593 36.1258 19.6791 34.5999 19.6791C33.0282 19.6791 30.6782 17.9101 28.1452 17.9711C24.895 18.0168 21.8431 19.9078 20.1646 22.8511C16.7008 28.7986 19.2796 37.6131 22.6061 42.4473C24.2541 44.8111 26.192 47.4798 28.7098 47.3731C31.197 47.2663 32.1279 45.7871 35.1187 45.7871C38.079 45.7871 38.9335 47.3578 41.5276 47.3121C44.1979 47.2511 45.8765 44.9178 47.4787 42.5236C49.3861 39.8091 50.1643 37.1403 50.1948 37.0031C50.1338 36.9726 45.0067 35.0206 44.9762 29.1341V29.1646ZM40.0932 14.7076C41.4208 13.0301 42.3363 10.7883 42.0769 8.4856C40.1542 8.56185 37.7433 9.81235 36.3547 11.4441C35.1339 12.8776 34.02 15.2566 34.3099 17.4526C36.4768 17.6051 38.7046 16.3546 40.1085 14.7076H40.0932ZM80.8507 47.0376H77.3868L75.4947 41.0901H68.8874L67.0868 47.0376H63.7298L70.2455 26.7551H74.2739L80.8354 47.0376H80.8507ZM74.8996 38.5738L73.2211 33.2821C73.0227 32.7331 72.687 31.4521 72.1834 29.4696H72.1224C71.924 30.3236 71.6036 31.6046 71.1611 33.2821L69.452 38.5738H74.9148H74.8996ZM97.6664 39.5651C97.6664 42.0356 96.995 43.9876 95.6522 45.4516C94.4314 46.7326 92.9513 47.3731 91.1659 47.3731C89.228 47.3731 87.8547 46.6868 87.0002 45.2991H86.9391V53.0003H83.6889V37.2471C83.6889 35.6763 83.6431 34.0751 83.5668 32.4281H86.4356L86.6187 34.7613H86.6797C87.7479 33.0076 89.4264 32.1383 91.6085 32.1383C93.3327 32.1383 94.7671 32.8398 95.9268 34.1971C97.0713 35.5696 97.6511 37.3691 97.6511 39.5956L97.6664 39.5651ZM94.3551 39.6718C94.3551 38.2383 94.0194 37.0793 93.3785 36.1643C92.6766 35.1731 91.7305 34.7003 90.5403 34.7003C89.7468 34.7003 89.0144 34.9748 88.3582 35.5086C87.7021 36.0423 87.2901 36.7286 87.0765 37.5978C86.9849 38.0096 86.9239 38.3298 86.9239 38.5891V41.0291C86.9239 42.0966 87.2596 43.0116 87.9157 43.7283C88.5566 44.4603 89.4111 44.8263 90.4488 44.8263C91.6695 44.8263 92.6308 44.3688 93.3175 43.4233C94.0042 42.4778 94.3399 41.2273 94.3399 39.6871L94.3551 39.6718ZM114.513 39.5651C114.513 42.0356 113.841 43.9876 112.483 45.4516C111.293 46.7326 109.782 47.3731 107.997 47.3731C106.074 47.3731 104.686 46.6868 103.846 45.2991H103.801V53.0003H100.55V37.2471C100.55 35.6763 100.505 34.0751 100.428 32.4281H103.282L103.465 34.7613H103.526C104.594 33.0076 106.242 32.1383 108.455 32.1383C110.179 32.1383 111.629 32.8398 112.773 34.1971C113.933 35.5696 114.513 37.3691 114.513 39.5956V39.5651ZM111.201 39.6718C111.201 38.2383 110.896 37.0793 110.225 36.1643C109.508 35.1731 108.577 34.7003 107.387 34.7003C106.578 34.7003 105.861 34.9748 105.204 35.5086C104.564 36.0423 104.136 36.7286 103.938 37.5978C103.831 38.0096 103.785 38.3298 103.785 38.5891V41.0291C103.785 42.0966 104.091 43.0116 104.762 43.7283C105.433 44.4603 106.288 44.8263 107.325 44.8263C108.546 44.8263 109.508 44.3688 110.194 43.4233C110.866 42.4778 111.217 41.2273 111.217 39.6871L111.201 39.6718ZM133.343 41.3493C133.343 43.0726 132.732 44.4756 131.542 45.5736C130.214 46.7478 128.368 47.3426 126.003 47.3426C123.821 47.3426 122.066 46.9308 120.738 46.0768L121.501 43.3623C122.92 44.2163 124.492 44.6433 126.201 44.6433C127.422 44.6433 128.383 44.3688 129.07 43.8198C129.741 43.2708 130.092 42.5236 130.092 41.6086C130.092 40.7851 129.818 40.0836 129.253 39.5193C128.704 38.9551 127.758 38.4518 126.461 37.9486C122.905 36.6218 121.12 34.6851 121.12 32.1536C121.12 30.4761 121.73 29.1036 122.997 28.0361C124.217 26.9686 125.896 26.4348 127.971 26.4348C129.833 26.4348 131.359 26.7398 132.595 27.3956L131.756 30.0643C130.596 29.4543 129.314 29.1493 127.864 29.1493C126.72 29.1493 125.82 29.4086 125.179 29.9728C124.614 30.4913 124.355 31.1013 124.355 31.8333C124.355 32.6263 124.66 33.2973 125.27 33.8158C125.82 34.3038 126.796 34.8223 128.231 35.3866C129.985 36.0881 131.283 36.9116 132.091 37.8571C132.915 38.7721 133.312 39.9616 133.312 41.3646L133.343 41.3493ZM144.116 34.8376H140.514V41.9593C140.514 43.7588 141.125 44.6586 142.407 44.6586C142.986 44.6586 143.475 44.6128 143.856 44.5061L143.948 46.9766C143.292 47.2206 142.452 47.3426 141.399 47.3426C140.118 47.3426 139.111 46.9461 138.378 46.1683C137.661 45.4058 137.31 44.0638 137.31 42.2033V34.8528H135.174V32.4128H137.31V29.7441L140.514 28.7833V32.4433H144.085V34.8833L144.116 34.8376ZM160.29 39.6108C160.29 41.8526 159.634 43.6978 158.352 45.1466C156.979 46.6258 155.209 47.3731 152.981 47.3731C150.845 47.3731 149.136 46.6563 147.869 45.2381C146.588 43.8198 145.947 42.0356 145.947 39.8548C145.947 37.5673 146.588 35.7068 147.93 34.2581C149.227 32.8246 150.982 32.0926 153.225 32.0926C155.362 32.0926 157.101 32.8246 158.413 34.2276C159.634 35.6306 160.275 37.4301 160.275 39.6108H160.29ZM156.903 39.7176C156.903 38.3451 156.598 37.2013 156.033 36.2406C155.362 35.0663 154.385 34.4868 153.134 34.4868C151.821 34.4868 150.814 35.0663 150.143 36.2406C149.533 37.2013 149.273 38.3756 149.273 39.7786C149.273 41.1206 149.548 42.2796 150.143 43.2403C150.845 44.4298 151.821 45.0093 153.088 45.0093C154.339 45.0093 155.316 44.3993 156.018 43.2251C156.598 42.2338 156.903 41.0596 156.903 39.7176ZM170.85 35.2646C170.545 35.2036 170.178 35.1731 169.827 35.1731C168.683 35.1731 167.798 35.6306 167.172 36.4693C166.653 37.2318 166.379 38.2078 166.379 39.3668V47.0376H163.129L163.159 37.0183C163.159 35.3408 163.113 33.8158 163.037 32.4128H165.845L165.967 35.2341H166.058C166.409 34.2581 166.943 33.4956 167.691 32.9008C168.408 32.3823 169.187 32.1383 170.041 32.1383C170.346 32.1383 170.59 32.1383 170.835 32.1841V35.2798L170.85 35.2646ZM185.407 39.0313C185.407 39.6108 185.361 40.0988 185.285 40.5106H175.519C175.565 41.9593 176.038 43.0573 176.938 43.8198C177.777 44.4908 178.846 44.8263 180.143 44.8263C181.592 44.8263 182.889 44.5976 184.11 44.1401L184.598 46.4276C183.225 47.0071 181.577 47.3121 179.715 47.3121C177.427 47.3121 175.641 46.6411 174.344 45.3296C173.047 43.9571 172.406 42.1881 172.406 39.9463C172.406 37.7351 173.017 35.8898 174.207 34.4258C175.489 32.8703 177.198 32.0773 179.349 32.0773C181.455 32.0773 183.057 32.8398 184.141 34.4106C185.01 35.6611 185.453 37.1861 185.453 39.0161L185.407 39.0313ZM182.294 38.1926C182.325 37.2318 182.111 36.3931 181.684 35.6916C181.104 34.7766 180.234 34.3191 179.09 34.3191C178.022 34.3191 177.152 34.7766 176.496 35.6611C175.946 36.3626 175.626 37.1861 175.519 38.1926H182.294ZM73.8467 14.2501C73.8467 16.0801 73.3126 17.4068 72.2292 18.3218C71.2221 19.1606 69.7877 19.5723 67.9566 19.5723C67.041 19.5723 66.2781 19.5113 65.6372 19.4198V9.6751C66.4765 9.5226 67.392 9.47685 68.3839 9.47685C70.1387 9.47685 71.4357 9.8581 72.3513 10.6053C73.3279 11.4593 73.8314 12.6793 73.8314 14.2653L73.8467 14.2501ZM72.1682 14.3111C72.1682 13.1521 71.863 12.2523 71.2526 11.6271C70.6117 11.0171 69.7267 10.7121 68.5365 10.7121C68.0329 10.7121 67.6209 10.7121 67.2394 10.8036V18.2761C67.4378 18.2761 67.804 18.3066 68.3076 18.3066C69.5283 18.3066 70.4896 17.9558 71.1611 17.2848C71.8019 16.5833 72.1376 15.6073 72.1376 14.2958L72.1682 14.3111ZM82.7733 15.8361C82.7733 16.9341 82.4682 17.8491 81.8578 18.5506C81.1711 19.2826 80.3013 19.6486 79.2027 19.6486C78.1345 19.6486 77.3105 19.2978 76.6849 18.5811C76.0745 17.8948 75.7693 17.0103 75.7693 15.9428C75.7693 14.8448 76.0745 13.9603 76.7307 13.2283C77.3716 12.5268 78.2566 12.1608 79.3248 12.1608C80.3929 12.1608 81.2474 12.5116 81.8883 13.2283C82.4987 13.8993 82.8039 14.7533 82.8039 15.8513L82.7733 15.8361ZM81.1253 15.8818C81.1253 15.2261 80.9728 14.6618 80.6981 14.1738C80.3624 13.6096 79.8893 13.3198 79.2637 13.3198C78.6228 13.3198 78.1345 13.5943 77.7988 14.1586C77.4936 14.6161 77.3716 15.2261 77.3716 15.8971C77.3716 16.5376 77.5242 17.1171 77.7988 17.5746C78.1498 18.1541 78.6228 18.4438 79.2485 18.4438C79.8588 18.4438 80.3166 18.1388 80.6676 17.5746C80.9728 17.0866 81.1253 16.5071 81.1253 15.8513V15.8818ZM94.7824 12.2981L92.524 19.4656H91.0439L90.1283 16.3698C89.8689 15.5616 89.6705 14.7991 89.5179 14.0213C89.3653 14.8143 89.167 15.5921 88.9076 16.3546L87.931 19.4503H86.4356L84.3298 12.2828H85.9778L86.8018 15.6836C87.0002 16.4918 87.168 17.2543 87.3053 17.9711C87.4579 17.3916 87.6411 16.6291 87.9157 15.6836L88.9381 12.2676H90.2504L91.227 15.6226C91.4559 16.4461 91.6542 17.2391 91.8068 17.9863H91.8373C91.9442 17.2543 92.112 16.4613 92.3256 15.6226L93.2107 12.2676H94.7671L94.7824 12.2981ZM103.068 19.4808H101.466V15.3633C101.466 14.0976 100.978 13.4723 100.016 13.4723C99.5585 13.4723 99.1618 13.6248 98.8566 13.9756C98.5514 14.3263 98.3988 14.7381 98.3988 15.1956V19.4656H96.8119V14.3416C96.8119 13.7011 96.8119 13.0148 96.7661 12.2828H98.1852L98.2462 13.3961H98.292C98.4751 13.0606 98.7498 12.7861 99.116 12.5421C99.5738 12.2371 100.032 12.1151 100.581 12.1151C101.252 12.1151 101.802 12.3286 102.259 12.7708C102.809 13.3046 103.083 14.0976 103.083 15.1498V19.4656L103.068 19.4808ZM107.493 19.4808H105.876V9.0041H107.478L107.493 19.4808ZM116.893 15.8361C116.893 16.9341 116.588 17.8491 115.947 18.5506C115.276 19.2826 114.421 19.6486 113.307 19.6486C112.27 19.6486 111.43 19.2978 110.805 18.5811C110.194 17.8948 109.859 17.0103 109.859 15.9428C109.859 14.8448 110.164 13.9603 110.835 13.2283C111.476 12.5268 112.361 12.1608 113.429 12.1608C114.497 12.1608 115.337 12.5116 115.993 13.2283C116.603 13.8993 116.908 14.7533 116.908 15.8513L116.893 15.8361ZM115.215 15.8818C115.215 15.2261 115.092 14.6618 114.803 14.1738C114.452 13.6096 113.979 13.3198 113.353 13.3198C112.712 13.3198 112.224 13.5943 111.888 14.1586C111.583 14.6161 111.43 15.2261 111.43 15.8971C111.43 16.5376 111.583 17.1171 111.888 17.5746C112.224 18.1541 112.697 18.4438 113.322 18.4438C113.933 18.4438 114.391 18.1388 114.757 17.5746C115.062 17.0866 115.215 16.5071 115.215 15.8513V15.8818ZM124.629 19.4808H123.195L123.043 18.6573H123.012C122.524 19.2978 121.822 19.6333 120.921 19.6333C120.25 19.6333 119.701 19.4198 119.289 18.9776C118.907 18.6116 118.724 18.1083 118.724 17.5288C118.724 16.6596 119.09 16.0038 119.823 15.5158C120.555 15.0583 121.593 14.8296 122.936 14.8448V14.6923C122.936 13.7468 122.432 13.2741 121.44 13.2741C120.723 13.2741 120.097 13.4571 119.563 13.8078L119.258 12.7403C119.914 12.3438 120.738 12.1303 121.7 12.1303C123.592 12.1303 124.538 13.1216 124.538 15.1041V17.7576C124.538 18.4896 124.568 19.0691 124.645 19.4808H124.629ZM122.951 17.0103V15.9428C121.211 15.8971 120.326 16.3698 120.326 17.3763C120.326 17.7423 120.433 18.0321 120.632 18.2151C120.845 18.3676 121.12 18.4743 121.425 18.4743C121.776 18.4743 122.112 18.3676 122.402 18.1388C122.707 17.9253 122.89 17.6356 122.966 17.3001V16.9951L122.951 17.0103ZM133.709 19.4808H132.29L132.229 18.3371H132.198C131.74 19.2063 130.977 19.6486 129.879 19.6486C129.009 19.6486 128.292 19.3131 127.742 18.6268C127.132 17.9406 126.857 17.0713 126.857 15.9733C126.857 14.8143 127.163 13.8688 127.803 13.1521C128.414 12.4811 129.131 12.1456 130.016 12.1456C130.977 12.1456 131.664 12.4506 132.045 13.1216H132.076V9.0041H133.678V17.5441C133.678 18.2456 133.678 18.8861 133.724 19.4808H133.709ZM132.061 16.4613V15.2413C132.061 15.0431 132.061 14.8753 132.015 14.7533C131.923 14.3721 131.71 14.0366 131.435 13.7773C131.13 13.5028 130.764 13.3808 130.367 13.3808C129.757 13.3808 129.299 13.6096 128.948 14.0823C128.612 14.5398 128.429 15.1498 128.429 15.9123C128.429 16.6138 128.582 17.1933 128.917 17.6356C129.268 18.0931 129.741 18.3523 130.321 18.3523C130.566 18.3596 130.809 18.308 131.029 18.2018C131.249 18.0956 131.441 17.9381 131.588 17.7423C131.893 17.3916 132.045 16.9493 132.045 16.4308L132.061 16.4613ZM147.396 15.8361C147.396 16.9341 147.091 17.8491 146.45 18.5506C145.779 19.2826 144.924 19.6486 143.81 19.6486C142.742 19.6486 141.918 19.2978 141.293 18.5811C140.682 17.8948 140.347 17.0103 140.347 15.9428C140.347 14.8448 140.652 13.9603 141.323 13.2283C141.964 12.5268 142.849 12.1608 143.917 12.1608C144.985 12.1608 145.84 12.5116 146.481 13.2283C147.091 13.8993 147.396 14.7533 147.396 15.8513V15.8361ZM145.718 15.8818C145.718 15.2261 145.596 14.6618 145.306 14.1738C144.97 13.6096 144.497 13.3198 143.871 13.3198C143.231 13.3198 142.742 13.5943 142.407 14.1586C142.101 14.6161 141.979 15.2261 141.979 15.8971C141.979 16.5376 142.132 17.1171 142.407 17.5746C142.757 18.1541 143.231 18.4438 143.856 18.4438C144.467 18.4438 144.955 18.1388 145.291 17.5746C145.596 17.0866 145.748 16.5071 145.748 15.8513L145.718 15.8818ZM155.987 19.4808H154.4V15.3633C154.4 14.0976 153.912 13.4723 152.951 13.4723C152.447 13.4723 152.066 13.6248 151.776 13.9756C151.471 14.3263 151.318 14.7381 151.318 15.1956V19.4656H149.761V14.3416C149.761 13.7011 149.731 13.0148 149.685 12.2828H151.089L151.165 13.3961H151.211C151.394 13.0606 151.669 12.7861 152.035 12.5421C152.462 12.2371 152.951 12.1151 153.469 12.1151C154.141 12.1151 154.69 12.3286 155.148 12.7708C155.697 13.3046 155.972 14.0976 155.972 15.1498V19.4656L155.987 19.4808ZM166.76 13.4876H164.99V16.9951C164.99 17.8796 165.295 18.3218 165.906 18.3218C166.211 18.3218 166.455 18.2913 166.638 18.2456L166.684 19.4656C166.348 19.5723 165.921 19.6181 165.417 19.6181C164.807 19.6181 164.304 19.4351 163.937 19.0538C163.586 18.6726 163.403 18.0321 163.403 17.1171V13.4876H162.335L162.366 12.2981H163.403V10.9713L164.975 10.5138V12.2676H166.745V13.4571L166.76 13.4876ZM175.214 19.4808H173.612V15.3938C173.612 14.1128 173.154 13.4571 172.177 13.4571C171.414 13.4571 170.911 13.8383 170.651 14.5856C170.575 14.7381 170.56 14.9363 170.56 15.1651V19.4808H168.958V9.0041H170.545V13.3351H170.575C171.079 12.5421 171.796 12.1456 172.711 12.1456C173.398 12.1456 173.932 12.3591 174.39 12.8013C174.924 13.3351 175.183 14.1433 175.183 15.2108V19.4808H175.214ZM183.942 15.5463C183.942 15.8513 183.942 16.0801 183.896 16.2783H179.105C179.105 16.9798 179.349 17.5288 179.792 17.8948C180.204 18.1998 180.707 18.3828 181.363 18.3828C182.081 18.3828 182.737 18.2761 183.317 18.0473L183.561 19.1606C182.889 19.4656 182.081 19.6181 181.15 19.6181C180.036 19.6181 179.166 19.2826 178.525 18.6268C177.884 17.9711 177.579 17.1018 177.579 15.9733C177.579 14.9058 177.884 13.9908 178.464 13.2741C179.075 12.5116 179.914 12.1151 180.982 12.1151C182.004 12.1151 182.813 12.5268 183.332 13.2893C183.744 13.8993 183.942 14.6618 183.942 15.5463ZM182.416 15.1346C182.447 14.6771 182.34 14.2501 182.111 13.9146C181.836 13.4571 181.424 13.2436 180.845 13.2436C180.326 13.2436 179.899 13.4571 179.578 13.8993C179.303 14.2348 179.151 14.6618 179.12 15.1193H182.432L182.416 15.1346Z" fill="white"/>
</svg>
