<svg width="628" height="39" viewBox="0 0 628 39" fill="none" xmlns="http://www.w3.org/2000/svg">
<path d="M6.36 7.536V20.976C6.36 22.32 6.69067 23.3547 7.352 24.08C8.01333 24.8053 8.984 25.168 10.264 25.168C11.544 25.168 12.5253 24.8053 13.208 24.08C13.8907 23.3547 14.232 22.32 14.232 20.976V7.536H19.704V20.944C19.704 22.9493 19.2773 24.6453 18.424 26.032C17.5707 27.4187 16.4187 28.464 14.968 29.168C13.5387 29.872 11.9387 30.224 10.168 30.224C8.39733 30.224 6.808 29.8827 5.4 29.2C4.01333 28.496 2.91467 27.4507 2.104 26.064C1.29333 24.656 0.888 22.9493 0.888 20.944V7.536H6.36ZM29.0185 14.672C29.5518 13.84 30.2878 13.168 31.2265 12.656C32.1652 12.144 33.2638 11.888 34.5225 11.888C35.9945 11.888 37.3278 12.2613 38.5225 13.008C39.7172 13.7547 40.6558 14.8213 41.3385 16.208C42.0425 17.5947 42.3945 19.2053 42.3945 21.04C42.3945 22.8747 42.0425 24.496 41.3385 25.904C40.6558 27.2907 39.7172 28.368 38.5225 29.136C37.3278 29.8827 35.9945 30.256 34.5225 30.256C33.2852 30.256 32.1865 30 31.2265 29.488C30.2878 28.976 29.5518 28.3147 29.0185 27.504V38.512H23.5465V12.144H29.0185V14.672ZM36.8265 21.04C36.8265 19.6747 36.4425 18.608 35.6745 17.84C34.9278 17.0507 33.9998 16.656 32.8905 16.656C31.8025 16.656 30.8745 17.0507 30.1065 17.84C29.3598 18.6293 28.9865 19.7067 28.9865 21.072C28.9865 22.4373 29.3598 23.5147 30.1065 24.304C30.8745 25.0933 31.8025 25.488 32.8905 25.488C33.9785 25.488 34.9065 25.0933 35.6745 24.304C36.4425 23.4933 36.8265 22.4053 36.8265 21.04ZM61.9985 25.36V30H59.2145C57.2305 30 55.6838 29.52 54.5745 28.56C53.4652 27.5787 52.9105 25.9893 52.9105 23.792V16.688H50.7345V12.144H52.9105V7.792H58.3825V12.144H61.9665V16.688H58.3825V23.856C58.3825 24.3893 58.5105 24.7733 58.7665 25.008C59.0225 25.2427 59.4492 25.36 60.0465 25.36H61.9985ZM73.1745 30.256C71.4252 30.256 69.8465 29.8827 68.4385 29.136C67.0518 28.3893 65.9532 27.3227 65.1425 25.936C64.3532 24.5493 63.9585 22.928 63.9585 21.072C63.9585 19.2373 64.3638 17.6267 65.1745 16.24C65.9852 14.832 67.0945 13.7547 68.5025 13.008C69.9105 12.2613 71.4892 11.888 73.2385 11.888C74.9878 11.888 76.5665 12.2613 77.9745 13.008C79.3825 13.7547 80.4918 14.832 81.3025 16.24C82.1132 17.6267 82.5185 19.2373 82.5185 21.072C82.5185 22.9067 82.1025 24.528 81.2705 25.936C80.4598 27.3227 79.3398 28.3893 77.9105 29.136C76.5025 29.8827 74.9238 30.256 73.1745 30.256ZM73.1745 25.52C74.2198 25.52 75.1052 25.136 75.8305 24.368C76.5772 23.6 76.9505 22.5013 76.9505 21.072C76.9505 19.6427 76.5878 18.544 75.8625 17.776C75.1585 17.008 74.2838 16.624 73.2385 16.624C72.1718 16.624 71.2865 17.008 70.5825 17.776C69.8785 18.5227 69.5265 19.6213 69.5265 21.072C69.5265 22.5013 69.8678 23.6 70.5505 24.368C71.2545 25.136 72.1292 25.52 73.1745 25.52ZM105.963 16.496V21.04H91.8828V16.496H105.963ZM110.349 25.84V21.424L120.461 6.96H126.573V21.104H129.197V25.84H126.573V30H121.101V25.84H110.349ZM121.485 12.976L116.109 21.104H121.485V12.976ZM131.878 18C131.878 14.3307 132.582 11.44 133.99 9.328C135.419 7.216 137.712 6.16 140.87 6.16C144.027 6.16 146.31 7.216 147.718 9.328C149.147 11.44 149.862 14.3307 149.862 18C149.862 21.712 149.147 24.624 147.718 26.736C146.31 28.848 144.027 29.904 140.87 29.904C137.712 29.904 135.419 28.848 133.99 26.736C132.582 24.624 131.878 21.712 131.878 18ZM144.486 18C144.486 15.8453 144.251 14.192 143.782 13.04C143.312 11.8667 142.342 11.28 140.87 11.28C139.398 11.28 138.427 11.8667 137.958 13.04C137.488 14.192 137.254 15.8453 137.254 18C137.254 19.4507 137.339 20.656 137.51 21.616C137.68 22.5547 138.022 23.3227 138.534 23.92C139.067 24.496 139.846 24.784 140.87 24.784C141.894 24.784 142.662 24.496 143.174 23.92C143.707 23.3227 144.059 22.5547 144.23 21.616C144.4 20.656 144.486 19.4507 144.486 18ZM152.305 12.528C152.305 10.8 152.795 9.46667 153.777 8.528C154.779 7.58933 156.07 7.12 157.649 7.12C159.227 7.12 160.507 7.58933 161.489 8.528C162.47 9.46667 162.961 10.8 162.961 12.528C162.961 14.256 162.47 15.5893 161.489 16.528C160.507 17.4667 159.227 17.936 157.649 17.936C156.07 17.936 154.779 17.4667 153.777 16.528C152.795 15.5893 152.305 14.256 152.305 12.528ZM174.033 7.472L161.713 30H156.433L168.753 7.472H174.033ZM157.617 10.32C156.593 10.32 156.081 11.056 156.081 12.528C156.081 13.9787 156.593 14.704 157.617 14.704C158.107 14.704 158.491 14.5227 158.769 14.16C159.046 13.7973 159.185 13.2533 159.185 12.528C159.185 11.056 158.662 10.32 157.617 10.32ZM167.537 24.944C167.537 23.216 168.027 21.8827 169.009 20.944C169.99 20.0053 171.27 19.536 172.849 19.536C174.427 19.536 175.707 20.0053 176.689 20.944C177.67 21.8827 178.161 23.216 178.161 24.944C178.161 26.672 177.67 28.0053 176.689 28.944C175.707 29.8827 174.427 30.352 172.849 30.352C171.27 30.352 169.99 29.8827 169.009 28.944C168.027 28.0053 167.537 26.672 167.537 24.944ZM172.817 22.736C172.326 22.736 171.942 22.9173 171.665 23.28C171.409 23.6427 171.281 24.1973 171.281 24.944C171.281 26.3947 171.793 27.12 172.817 27.12C173.307 27.12 173.691 26.9387 173.969 26.576C174.246 26.2133 174.385 25.6693 174.385 24.944C174.385 24.2187 174.246 23.6747 173.969 23.312C173.691 22.928 173.307 22.736 172.817 22.736ZM185.938 32.24H217.938V0.24H185.938V32.24ZM237.327 30.224C235.215 30.224 233.273 29.7333 231.503 28.752C229.753 27.7707 228.356 26.4053 227.311 24.656C226.287 22.8853 225.775 20.9013 225.775 18.704C225.775 16.5067 226.287 14.5333 227.311 12.784C228.356 11.0347 229.753 9.66933 231.503 8.688C233.273 7.70667 235.215 7.216 237.327 7.216C239.439 7.216 241.369 7.70667 243.119 8.688C244.889 9.66933 246.276 11.0347 247.279 12.784C248.303 14.5333 248.815 16.5067 248.815 18.704C248.815 20.9013 248.303 22.8853 247.279 24.656C246.255 26.4053 244.868 27.7707 243.119 28.752C241.369 29.7333 239.439 30.224 237.327 30.224ZM237.327 25.232C239.119 25.232 240.548 24.6347 241.615 23.44C242.703 22.2453 243.247 20.6667 243.247 18.704C243.247 16.72 242.703 15.1413 241.615 13.968C240.548 12.7733 239.119 12.176 237.327 12.176C235.513 12.176 234.063 12.7627 232.975 13.936C231.908 15.1093 231.375 16.6987 231.375 18.704C231.375 20.688 231.908 22.2773 232.975 23.472C234.063 24.6453 235.513 25.232 237.327 25.232ZM257.331 15.12C257.971 14.1387 258.771 13.3707 259.731 12.816C260.691 12.24 261.758 11.952 262.931 11.952V17.744H261.427C260.062 17.744 259.038 18.0427 258.355 18.64C257.672 19.216 257.331 20.24 257.331 21.712V30H251.859V12.144H257.331V15.12ZM264.459 21.04C264.459 19.2053 264.8 17.5947 265.483 16.208C266.187 14.8213 267.136 13.7547 268.331 13.008C269.525 12.2613 270.859 11.888 272.331 11.888C273.504 11.888 274.571 12.1333 275.531 12.624C276.512 13.1147 277.28 13.776 277.835 14.608V6.32H283.307V30H277.835V27.44C277.323 28.2933 276.587 28.976 275.627 29.488C274.688 30 273.589 30.256 272.331 30.256C270.859 30.256 269.525 29.8827 268.331 29.136C267.136 28.368 266.187 27.2907 265.483 25.904C264.8 24.496 264.459 22.8747 264.459 21.04ZM277.835 21.072C277.835 19.7067 277.451 18.6293 276.683 17.84C275.936 17.0507 275.019 16.656 273.931 16.656C272.843 16.656 271.915 17.0507 271.147 17.84C270.4 18.608 270.027 19.6747 270.027 21.04C270.027 22.4053 270.4 23.4933 271.147 24.304C271.915 25.0933 272.843 25.488 273.931 25.488C275.019 25.488 275.936 25.0933 276.683 24.304C277.451 23.5147 277.835 22.4373 277.835 21.072ZM304.097 20.784C304.097 21.296 304.065 21.8293 304.001 22.384H291.617C291.703 23.4933 292.055 24.3467 292.673 24.944C293.313 25.52 294.092 25.808 295.009 25.808C296.375 25.808 297.324 25.232 297.857 24.08H303.681C303.383 25.2533 302.839 26.3093 302.049 27.248C301.281 28.1867 300.311 28.9227 299.137 29.456C297.964 29.9893 296.652 30.256 295.201 30.256C293.452 30.256 291.895 29.8827 290.529 29.136C289.164 28.3893 288.097 27.3227 287.329 25.936C286.561 24.5493 286.177 22.928 286.177 21.072C286.177 19.216 286.551 17.5947 287.297 16.208C288.065 14.8213 289.132 13.7547 290.497 13.008C291.863 12.2613 293.431 11.888 295.201 11.888C296.929 11.888 298.465 12.2507 299.809 12.976C301.153 13.7013 302.199 14.736 302.945 16.08C303.713 17.424 304.097 18.992 304.097 20.784ZM298.497 19.344C298.497 18.4053 298.177 17.6587 297.537 17.104C296.897 16.5493 296.097 16.272 295.137 16.272C294.22 16.272 293.441 16.5387 292.801 17.072C292.183 17.6053 291.799 18.3627 291.649 19.344H298.497ZM312.456 15.12C313.096 14.1387 313.896 13.3707 314.856 12.816C315.816 12.24 316.883 11.952 318.056 11.952V17.744H316.552C315.187 17.744 314.163 18.0427 313.48 18.64C312.797 19.216 312.456 20.24 312.456 21.712V30H306.984V12.144H312.456V15.12ZM323.232 30.256C322.272 30.256 321.482 29.9787 320.864 29.424C320.266 28.848 319.968 28.144 319.968 27.312C319.968 26.4587 320.266 25.744 320.864 25.168C321.482 24.592 322.272 24.304 323.232 24.304C324.17 24.304 324.938 24.592 325.536 25.168C326.154 25.744 326.464 26.4587 326.464 27.312C326.464 28.144 326.154 28.848 325.536 29.424C324.938 29.9787 324.17 30.256 323.232 30.256ZM347.335 12.144V30H341.863V27.568C341.308 28.3573 340.551 28.9973 339.591 29.488C338.652 29.9573 337.607 30.192 336.455 30.192C335.089 30.192 333.884 29.8933 332.839 29.296C331.793 28.6773 330.983 27.792 330.407 26.64C329.831 25.488 329.543 24.1333 329.543 22.576V12.144H334.983V21.84C334.983 23.0347 335.292 23.9627 335.911 24.624C336.529 25.2853 337.361 25.616 338.407 25.616C339.473 25.616 340.316 25.2853 340.935 24.624C341.553 23.9627 341.863 23.0347 341.863 21.84V12.144H347.335ZM362.177 30L356.737 22.512V30H351.265V6.32H356.737V19.408L362.145 12.144H368.897L361.473 21.104L368.961 30H362.177ZM394.66 20.784C394.66 21.296 394.628 21.8293 394.564 22.384H382.18C382.265 23.4933 382.617 24.3467 383.236 24.944C383.876 25.52 384.654 25.808 385.572 25.808C386.937 25.808 387.886 25.232 388.42 24.08H394.244C393.945 25.2533 393.401 26.3093 392.612 27.248C391.844 28.1867 390.873 28.9227 389.7 29.456C388.526 29.9893 387.214 30.256 385.764 30.256C384.014 30.256 382.457 29.8827 381.092 29.136C379.726 28.3893 378.66 27.3227 377.892 25.936C377.124 24.5493 376.74 22.928 376.74 21.072C376.74 19.216 377.113 17.5947 377.86 16.208C378.628 14.8213 379.694 13.7547 381.06 13.008C382.425 12.2613 383.993 11.888 385.764 11.888C387.492 11.888 389.028 12.2507 390.372 12.976C391.716 13.7013 392.761 14.736 393.508 16.08C394.276 17.424 394.66 18.992 394.66 20.784ZM389.06 19.344C389.06 18.4053 388.74 17.6587 388.1 17.104C387.46 16.5493 386.66 16.272 385.7 16.272C384.782 16.272 384.004 16.5387 383.364 17.072C382.745 17.6053 382.361 18.3627 382.212 19.344H389.06ZM408.107 30L404.683 25.04L401.803 30H395.883L401.771 20.88L395.723 12.144H401.867L405.291 17.072L408.171 12.144H414.091L408.107 21.136L414.251 30H408.107ZM415.271 21.072C415.271 19.216 415.644 17.5947 416.391 16.208C417.159 14.8213 418.215 13.7547 419.559 13.008C420.924 12.2613 422.482 11.888 424.231 11.888C426.471 11.888 428.338 12.4747 429.831 13.648C431.346 14.8213 432.338 16.4747 432.807 18.608H426.983C426.492 17.2427 425.543 16.56 424.135 16.56C423.132 16.56 422.332 16.9547 421.735 17.744C421.138 18.512 420.839 19.6213 420.839 21.072C420.839 22.5227 421.138 23.6427 421.735 24.432C422.332 25.2 423.132 25.584 424.135 25.584C425.543 25.584 426.492 24.9013 426.983 23.536H432.807C432.338 25.6267 431.346 27.2693 429.831 28.464C428.316 29.6587 426.45 30.256 424.231 30.256C422.482 30.256 420.924 29.8827 419.559 29.136C418.215 28.3893 417.159 27.3227 416.391 25.936C415.644 24.5493 415.271 22.928 415.271 21.072ZM441.206 6.32V30H435.734V6.32H441.206ZM462.804 12.144V30H457.332V27.568C456.777 28.3573 456.02 28.9973 455.06 29.488C454.121 29.9573 453.076 30.192 451.924 30.192C450.558 30.192 449.353 29.8933 448.308 29.296C447.262 28.6773 446.452 27.792 445.876 26.64C445.3 25.488 445.012 24.1333 445.012 22.576V12.144H450.452V21.84C450.452 23.0347 450.761 23.9627 451.38 24.624C451.998 25.2853 452.83 25.616 453.876 25.616C454.942 25.616 455.785 25.2853 456.404 24.624C457.022 23.9627 457.332 23.0347 457.332 21.84V12.144H462.804ZM473.998 30.256C472.441 30.256 471.054 29.9893 469.838 29.456C468.622 28.9227 467.662 28.1973 466.958 27.28C466.254 26.3413 465.859 25.296 465.774 24.144H471.182C471.246 24.7627 471.534 25.264 472.046 25.648C472.558 26.032 473.187 26.224 473.934 26.224C474.617 26.224 475.139 26.096 475.502 25.84C475.886 25.5627 476.078 25.2107 476.078 24.784C476.078 24.272 475.811 23.8987 475.278 23.664C474.745 23.408 473.881 23.1307 472.686 22.832C471.406 22.5333 470.339 22.224 469.486 21.904C468.633 21.5627 467.897 21.04 467.278 20.336C466.659 19.6107 466.35 18.64 466.35 17.424C466.35 16.4 466.627 15.472 467.182 14.64C467.758 13.7867 468.59 13.1147 469.678 12.624C470.787 12.1333 472.099 11.888 473.614 11.888C475.854 11.888 477.614 12.4427 478.894 13.552C480.195 14.6613 480.942 16.1333 481.134 17.968H476.078C475.993 17.3493 475.715 16.8587 475.246 16.496C474.798 16.1333 474.201 15.952 473.454 15.952C472.814 15.952 472.323 16.08 471.982 16.336C471.641 16.5707 471.47 16.9013 471.47 17.328C471.47 17.84 471.737 18.224 472.27 18.48C472.825 18.736 473.678 18.992 474.83 19.248C476.153 19.5893 477.23 19.9307 478.062 20.272C478.894 20.592 479.619 21.1253 480.238 21.872C480.878 22.5973 481.209 23.5787 481.23 24.816C481.23 25.8613 480.931 26.8 480.334 27.632C479.758 28.4427 478.915 29.0827 477.806 29.552C476.718 30.0213 475.449 30.256 473.998 30.256ZM487.33 10.288C486.37 10.288 485.58 10.0107 484.962 9.456C484.364 8.88 484.066 8.176 484.066 7.344C484.066 6.49067 484.364 5.78667 484.962 5.232C485.58 4.656 486.37 4.368 487.33 4.368C488.268 4.368 489.036 4.656 489.634 5.232C490.252 5.78667 490.562 6.49067 490.562 7.344C490.562 8.176 490.252 8.88 489.634 9.456C489.036 10.0107 488.268 10.288 487.33 10.288ZM490.05 12.144V30H484.578V12.144H490.05ZM502.047 24.88L505.919 12.144H511.743L505.407 30H498.655L492.319 12.144H498.175L502.047 24.88ZM530.878 20.784C530.878 21.296 530.847 21.8293 530.783 22.384H518.399C518.484 23.4933 518.836 24.3467 519.455 24.944C520.095 25.52 520.873 25.808 521.791 25.808C523.156 25.808 524.105 25.232 524.639 24.08H530.463C530.164 25.2533 529.62 26.3093 528.831 27.248C528.063 28.1867 527.092 28.9227 525.919 29.456C524.745 29.9893 523.433 30.256 521.983 30.256C520.233 30.256 518.676 29.8827 517.311 29.136C515.945 28.3893 514.879 27.3227 514.111 25.936C513.343 24.5493 512.959 22.928 512.959 21.072C512.959 19.216 513.332 17.5947 514.079 16.208C514.847 14.8213 515.913 13.7547 517.279 13.008C518.644 12.2613 520.212 11.888 521.983 11.888C523.711 11.888 525.247 12.2507 526.591 12.976C527.935 13.7013 528.98 14.736 529.727 16.08C530.495 17.424 530.878 18.992 530.878 20.784ZM525.279 19.344C525.279 18.4053 524.959 17.6587 524.319 17.104C523.679 16.5493 522.879 16.272 521.919 16.272C521.001 16.272 520.223 16.5387 519.583 17.072C518.964 17.6053 518.58 18.3627 518.431 19.344H525.279ZM539.459 21.04C539.459 19.2053 539.8 17.5947 540.483 16.208C541.187 14.8213 542.136 13.7547 543.331 13.008C544.525 12.2613 545.859 11.888 547.331 11.888C548.504 11.888 549.571 12.1333 550.531 12.624C551.512 13.1147 552.28 13.776 552.835 14.608V6.32H558.307V30H552.835V27.44C552.323 28.2933 551.587 28.976 550.627 29.488C549.688 30 548.589 30.256 547.331 30.256C545.859 30.256 544.525 29.8827 543.331 29.136C542.136 28.368 541.187 27.2907 540.483 25.904C539.8 24.496 539.459 22.8747 539.459 21.04ZM552.835 21.072C552.835 19.7067 552.451 18.6293 551.683 17.84C550.936 17.0507 550.019 16.656 548.931 16.656C547.843 16.656 546.915 17.0507 546.147 17.84C545.4 18.608 545.027 19.6747 545.027 21.04C545.027 22.4053 545.4 23.4933 546.147 24.304C546.915 25.0933 547.843 25.488 548.931 25.488C550.019 25.488 550.936 25.0933 551.683 24.304C552.451 23.5147 552.835 22.4373 552.835 21.072ZM579.097 20.784C579.097 21.296 579.065 21.8293 579.001 22.384H566.617C566.703 23.4933 567.055 24.3467 567.673 24.944C568.313 25.52 569.092 25.808 570.009 25.808C571.375 25.808 572.324 25.232 572.857 24.08H578.681C578.383 25.2533 577.839 26.3093 577.049 27.248C576.281 28.1867 575.311 28.9227 574.137 29.456C572.964 29.9893 571.652 30.256 570.201 30.256C568.452 30.256 566.895 29.8827 565.529 29.136C564.164 28.3893 563.097 27.3227 562.329 25.936C561.561 24.5493 561.177 22.928 561.177 21.072C561.177 19.216 561.551 17.5947 562.297 16.208C563.065 14.8213 564.132 13.7547 565.497 13.008C566.863 12.2613 568.431 11.888 570.201 11.888C571.929 11.888 573.465 12.2507 574.809 12.976C576.153 13.7013 577.199 14.736 577.945 16.08C578.713 17.424 579.097 18.992 579.097 20.784ZM573.497 19.344C573.497 18.4053 573.177 17.6587 572.537 17.104C571.897 16.5493 571.097 16.272 570.137 16.272C569.22 16.272 568.441 16.5387 567.801 17.072C567.183 17.6053 566.799 18.3627 566.649 19.344H573.497ZM580.896 21.04C580.896 19.2053 581.237 17.5947 581.92 16.208C582.624 14.8213 583.573 13.7547 584.768 13.008C585.963 12.2613 587.296 11.888 588.768 11.888C590.027 11.888 591.125 12.144 592.064 12.656C593.024 13.168 593.76 13.84 594.272 14.672V12.144H599.744V30H594.272V27.472C593.739 28.304 592.992 28.976 592.032 29.488C591.093 30 589.995 30.256 588.736 30.256C587.285 30.256 585.963 29.8827 584.768 29.136C583.573 28.368 582.624 27.2907 581.92 25.904C581.237 24.496 580.896 22.8747 580.896 21.04ZM594.272 21.072C594.272 19.7067 593.888 18.6293 593.12 17.84C592.373 17.0507 591.456 16.656 590.368 16.656C589.28 16.656 588.352 17.0507 587.584 17.84C586.837 18.608 586.464 19.6747 586.464 21.04C586.464 22.4053 586.837 23.4933 587.584 24.304C588.352 25.0933 589.28 25.488 590.368 25.488C591.456 25.488 592.373 25.0933 593.12 24.304C593.888 23.5147 594.272 22.4373 594.272 21.072ZM609.175 6.32V30H603.703V6.32H609.175ZM620.404 30.256C618.847 30.256 617.46 29.9893 616.244 29.456C615.028 28.9227 614.068 28.1973 613.364 27.28C612.66 26.3413 612.266 25.296 612.18 24.144H617.588C617.652 24.7627 617.94 25.264 618.452 25.648C618.964 26.032 619.594 26.224 620.34 26.224C621.023 26.224 621.546 26.096 621.908 25.84C622.292 25.5627 622.484 25.2107 622.484 24.784C622.484 24.272 622.218 23.8987 621.684 23.664C621.151 23.408 620.287 23.1307 619.092 22.832C617.812 22.5333 616.746 22.224 615.892 21.904C615.039 21.5627 614.303 21.04 613.684 20.336C613.066 19.6107 612.756 18.64 612.756 17.424C612.756 16.4 613.034 15.472 613.588 14.64C614.164 13.7867 614.996 13.1147 616.084 12.624C617.194 12.1333 618.506 11.888 620.02 11.888C622.26 11.888 624.02 12.4427 625.3 13.552C626.602 14.6613 627.348 16.1333 627.54 17.968H622.484C622.399 17.3493 622.122 16.8587 621.652 16.496C621.204 16.1333 620.607 15.952 619.86 15.952C619.22 15.952 618.73 16.08 618.388 16.336C618.047 16.5707 617.876 16.9013 617.876 17.328C617.876 17.84 618.143 18.224 618.676 18.48C619.231 18.736 620.084 18.992 621.236 19.248C622.559 19.5893 623.636 19.9307 624.468 20.272C625.3 20.592 626.026 21.1253 626.644 21.872C627.284 22.5973 627.615 23.5787 627.636 24.816C627.636 25.8613 627.338 26.8 626.74 27.632C626.164 28.4427 625.322 29.0827 624.212 29.552C623.124 30.0213 621.855 30.256 620.404 30.256Z" fill="black"/>
</svg>
