<svg width="506" height="39" viewBox="0 0 506 39" fill="none" xmlns="http://www.w3.org/2000/svg">
<path d="M11.608 30.224C9.496 30.224 7.55467 29.7333 5.784 28.752C4.03467 27.7707 2.63733 26.4053 1.592 24.656C0.568 22.8853 0.056 20.9013 0.056 18.704C0.056 16.5067 0.568 14.5333 1.592 12.784C2.63733 11.0347 4.03467 9.66933 5.784 8.688C7.55467 7.70667 9.496 7.216 11.608 7.216C13.72 7.216 15.6507 7.70667 17.4 8.688C19.1707 9.66933 20.5573 11.0347 21.56 12.784C22.584 14.5333 23.096 16.5067 23.096 18.704C23.096 20.9013 22.584 22.8853 21.56 24.656C20.536 26.4053 19.1493 27.7707 17.4 28.752C15.6507 29.7333 13.72 30.224 11.608 30.224ZM11.608 25.232C13.4 25.232 14.8293 24.6347 15.896 23.44C16.984 22.2453 17.528 20.6667 17.528 18.704C17.528 16.72 16.984 15.1413 15.896 13.968C14.8293 12.7733 13.4 12.176 11.608 12.176C9.79467 12.176 8.344 12.7627 7.256 13.936C6.18933 15.1093 5.656 16.6987 5.656 18.704C5.656 20.688 6.18933 22.2773 7.256 23.472C8.344 24.6453 9.79467 25.232 11.608 25.232ZM31.6123 15.12C32.2523 14.1387 33.0523 13.3707 34.0123 12.816C34.9723 12.24 36.0389 11.952 37.2123 11.952V17.744H35.7083C34.3429 17.744 33.3189 18.0427 32.6363 18.64C31.9536 19.216 31.6123 20.24 31.6123 21.712V30H26.1403V12.144H31.6123V15.12ZM38.7398 21.04C38.7398 19.2053 39.0811 17.5947 39.7638 16.208C40.4678 14.8213 41.4171 13.7547 42.6118 13.008C43.8064 12.2613 45.1398 11.888 46.6118 11.888C47.7851 11.888 48.8518 12.1333 49.8118 12.624C50.7931 13.1147 51.5611 13.776 52.1158 14.608V6.32H57.5878V30H52.1158V27.44C51.6038 28.2933 50.8678 28.976 49.9078 29.488C48.9691 30 47.8704 30.256 46.6118 30.256C45.1398 30.256 43.8064 29.8827 42.6118 29.136C41.4171 28.368 40.4678 27.2907 39.7638 25.904C39.0811 24.496 38.7398 22.8747 38.7398 21.04ZM52.1158 21.072C52.1158 19.7067 51.7318 18.6293 50.9638 17.84C50.2171 17.0507 49.2998 16.656 48.2118 16.656C47.1238 16.656 46.1958 17.0507 45.4278 17.84C44.6811 18.608 44.3078 19.6747 44.3078 21.04C44.3078 22.4053 44.6811 23.4933 45.4278 24.304C46.1958 25.0933 47.1238 25.488 48.2118 25.488C49.2998 25.488 50.2171 25.0933 50.9638 24.304C51.7318 23.5147 52.1158 22.4373 52.1158 21.072ZM78.3785 20.784C78.3785 21.296 78.3465 21.8293 78.2825 22.384H65.8985C65.9838 23.4933 66.3358 24.3467 66.9545 24.944C67.5945 25.52 68.3732 25.808 69.2905 25.808C70.6558 25.808 71.6052 25.232 72.1385 24.08H77.9625C77.6638 25.2533 77.1198 26.3093 76.3305 27.248C75.5625 28.1867 74.5918 28.9227 73.4185 29.456C72.2452 29.9893 70.9332 30.256 69.4825 30.256C67.7332 30.256 66.1758 29.8827 64.8105 29.136C63.4452 28.3893 62.3785 27.3227 61.6105 25.936C60.8425 24.5493 60.4585 22.928 60.4585 21.072C60.4585 19.216 60.8318 17.5947 61.5785 16.208C62.3465 14.8213 63.4132 13.7547 64.7785 13.008C66.1438 12.2613 67.7118 11.888 69.4825 11.888C71.2105 11.888 72.7465 12.2507 74.0905 12.976C75.4345 13.7013 76.4798 14.736 77.2265 16.08C77.9945 17.424 78.3785 18.992 78.3785 20.784ZM72.7785 19.344C72.7785 18.4053 72.4585 17.6587 71.8185 17.104C71.1785 16.5493 70.3785 16.272 69.4185 16.272C68.5012 16.272 67.7225 16.5387 67.0825 17.072C66.4638 17.6053 66.0798 18.3627 65.9305 19.344H72.7785ZM86.7373 15.12C87.3773 14.1387 88.1773 13.3707 89.1373 12.816C90.0973 12.24 91.1639 11.952 92.3373 11.952V17.744H90.8333C89.4679 17.744 88.4439 18.0427 87.7613 18.64C87.0786 19.216 86.7373 20.24 86.7373 21.712V30H81.2653V12.144H86.7373V15.12ZM97.5128 30.256C96.5528 30.256 95.7634 29.9787 95.1448 29.424C94.5474 28.848 94.2488 28.144 94.2488 27.312C94.2488 26.4587 94.5474 25.744 95.1448 25.168C95.7634 24.592 96.5528 24.304 97.5128 24.304C98.4514 24.304 99.2194 24.592 99.8168 25.168C100.435 25.744 100.745 26.4587 100.745 27.312C100.745 28.144 100.435 28.848 99.8168 29.424C99.2194 29.9787 98.4514 30.256 97.5128 30.256ZM121.616 12.144V30H116.144V27.568C115.589 28.3573 114.832 28.9973 113.872 29.488C112.933 29.9573 111.888 30.192 110.736 30.192C109.371 30.192 108.165 29.8933 107.12 29.296C106.075 28.6773 105.264 27.792 104.688 26.64C104.112 25.488 103.824 24.1333 103.824 22.576V12.144H109.264V21.84C109.264 23.0347 109.573 23.9627 110.192 24.624C110.811 25.2853 111.643 25.616 112.688 25.616C113.755 25.616 114.597 25.2853 115.216 24.624C115.835 23.9627 116.144 23.0347 116.144 21.84V12.144H121.616ZM136.459 30L131.019 22.512V30H125.547V6.32H131.019V19.408L136.427 12.144H143.179L135.755 21.104L143.243 30H136.459ZM169.229 14.768C169.229 16.0693 168.93 17.264 168.333 18.352C167.736 19.4187 166.818 20.2827 165.581 20.944C164.344 21.6053 162.808 21.936 160.973 21.936H157.581V30H152.109V7.536H160.973C162.765 7.536 164.28 7.84533 165.517 8.464C166.754 9.08267 167.682 9.936 168.301 11.024C168.92 12.112 169.229 13.36 169.229 14.768ZM160.557 17.584C161.602 17.584 162.381 17.3387 162.893 16.848C163.405 16.3573 163.661 15.664 163.661 14.768C163.661 13.872 163.405 13.1787 162.893 12.688C162.381 12.1973 161.602 11.952 160.557 11.952H157.581V17.584H160.557ZM180.206 30.256C178.456 30.256 176.878 29.8827 175.47 29.136C174.083 28.3893 172.984 27.3227 172.174 25.936C171.384 24.5493 170.99 22.928 170.99 21.072C170.99 19.2373 171.395 17.6267 172.206 16.24C173.016 14.832 174.126 13.7547 175.534 13.008C176.942 12.2613 178.52 11.888 180.27 11.888C182.019 11.888 183.598 12.2613 185.006 13.008C186.414 13.7547 187.523 14.832 188.334 16.24C189.144 17.6267 189.55 19.2373 189.55 21.072C189.55 22.9067 189.134 24.528 188.302 25.936C187.491 27.3227 186.371 28.3893 184.942 29.136C183.534 29.8827 181.955 30.256 180.206 30.256ZM180.206 25.52C181.251 25.52 182.136 25.136 182.862 24.368C183.608 23.6 183.982 22.5013 183.982 21.072C183.982 19.6427 183.619 18.544 182.894 17.776C182.19 17.008 181.315 16.624 180.27 16.624C179.203 16.624 178.318 17.008 177.614 17.776C176.91 18.5227 176.558 19.6213 176.558 21.072C176.558 22.5013 176.899 23.6 177.582 24.368C178.286 25.136 179.16 25.52 180.206 25.52ZM197.925 14.672C198.458 13.84 199.194 13.168 200.133 12.656C201.071 12.144 202.17 11.888 203.429 11.888C204.901 11.888 206.234 12.2613 207.429 13.008C208.623 13.7547 209.562 14.8213 210.245 16.208C210.949 17.5947 211.301 19.2053 211.301 21.04C211.301 22.8747 210.949 24.496 210.245 25.904C209.562 27.2907 208.623 28.368 207.429 29.136C206.234 29.8827 204.901 30.256 203.429 30.256C202.191 30.256 201.093 30 200.133 29.488C199.194 28.976 198.458 28.3147 197.925 27.504V38.512H192.453V12.144H197.925V14.672ZM205.733 21.04C205.733 19.6747 205.349 18.608 204.581 17.84C203.834 17.0507 202.906 16.656 201.797 16.656C200.709 16.656 199.781 17.0507 199.013 17.84C198.266 18.6293 197.893 19.7067 197.893 21.072C197.893 22.4373 198.266 23.5147 199.013 24.304C199.781 25.0933 200.709 25.488 201.797 25.488C202.885 25.488 203.813 25.0933 204.581 24.304C205.349 23.4933 205.733 22.4053 205.733 21.04ZM231.804 12.144V30H226.332V27.568C225.777 28.3573 225.02 28.9973 224.06 29.488C223.121 29.9573 222.076 30.192 220.924 30.192C219.558 30.192 218.353 29.8933 217.308 29.296C216.262 28.6773 215.452 27.792 214.876 26.64C214.3 25.488 214.012 24.1333 214.012 22.576V12.144H219.452V21.84C219.452 23.0347 219.761 23.9627 220.38 24.624C220.998 25.2853 221.83 25.616 222.876 25.616C223.942 25.616 224.785 25.2853 225.404 24.624C226.022 23.9627 226.332 23.0347 226.332 21.84V12.144H231.804ZM241.206 6.32V30H235.734V6.32H241.206ZM244.084 21.04C244.084 19.2053 244.425 17.5947 245.108 16.208C245.812 14.8213 246.761 13.7547 247.956 13.008C249.15 12.2613 250.484 11.888 251.956 11.888C253.214 11.888 254.313 12.144 255.252 12.656C256.212 13.168 256.948 13.84 257.46 14.672V12.144H262.932V30H257.46V27.472C256.926 28.304 256.18 28.976 255.22 29.488C254.281 30 253.182 30.256 251.924 30.256C250.473 30.256 249.15 29.8827 247.956 29.136C246.761 28.368 245.812 27.2907 245.108 25.904C244.425 24.496 244.084 22.8747 244.084 21.04ZM257.46 21.072C257.46 19.7067 257.076 18.6293 256.308 17.84C255.561 17.0507 254.644 16.656 253.556 16.656C252.468 16.656 251.54 17.0507 250.772 17.84C250.025 18.608 249.652 19.6747 249.652 21.04C249.652 22.4053 250.025 23.4933 250.772 24.304C251.54 25.0933 252.468 25.488 253.556 25.488C254.644 25.488 255.561 25.0933 256.308 24.304C257.076 23.5147 257.46 22.4373 257.46 21.072ZM272.362 15.12C273.002 14.1387 273.802 13.3707 274.762 12.816C275.722 12.24 276.789 11.952 277.962 11.952V17.744H276.458C275.093 17.744 274.069 18.0427 273.386 18.64C272.704 19.216 272.362 20.24 272.362 21.712V30H266.89V12.144H272.362V15.12ZM286.431 18.736C286.431 16.5173 286.911 14.544 287.871 12.816C288.831 11.0667 290.164 9.712 291.871 8.752C293.599 7.77067 295.551 7.28 297.727 7.28C300.394 7.28 302.676 7.984 304.575 9.392C306.474 10.8 307.743 12.72 308.383 15.152H302.367C301.919 14.2133 301.279 13.4987 300.447 13.008C299.636 12.5173 298.708 12.272 297.663 12.272C295.978 12.272 294.612 12.8587 293.567 14.032C292.522 15.2053 291.999 16.7733 291.999 18.736C291.999 20.6987 292.522 22.2667 293.567 23.44C294.612 24.6133 295.978 25.2 297.663 25.2C298.708 25.2 299.636 24.9547 300.447 24.464C301.279 23.9733 301.919 23.2587 302.367 22.32H308.383C307.743 24.752 306.474 26.672 304.575 28.08C302.676 29.4667 300.394 30.16 297.727 30.16C295.551 30.16 293.599 29.68 291.871 28.72C290.164 27.7387 288.831 26.384 287.871 24.656C286.911 22.928 286.431 20.9547 286.431 18.736ZM310.646 21.04C310.646 19.2053 310.987 17.5947 311.67 16.208C312.374 14.8213 313.323 13.7547 314.518 13.008C315.713 12.2613 317.046 11.888 318.518 11.888C319.777 11.888 320.875 12.144 321.814 12.656C322.774 13.168 323.51 13.84 324.022 14.672V12.144H329.494V30H324.022V27.472C323.489 28.304 322.742 28.976 321.782 29.488C320.843 30 319.745 30.256 318.486 30.256C317.035 30.256 315.713 29.8827 314.518 29.136C313.323 28.368 312.374 27.2907 311.67 25.904C310.987 24.496 310.646 22.8747 310.646 21.04ZM324.022 21.072C324.022 19.7067 323.638 18.6293 322.87 17.84C322.123 17.0507 321.206 16.656 320.118 16.656C319.03 16.656 318.102 17.0507 317.334 17.84C316.587 18.608 316.214 19.6747 316.214 21.04C316.214 22.4053 316.587 23.4933 317.334 24.304C318.102 25.0933 319.03 25.488 320.118 25.488C321.206 25.488 322.123 25.0933 322.87 24.304C323.638 23.5147 324.022 22.4373 324.022 21.072ZM343.405 25.36V30H340.621C338.637 30 337.09 29.52 335.981 28.56C334.871 27.5787 334.317 25.9893 334.317 23.792V16.688H332.141V12.144H334.317V7.792H339.789V12.144H343.373V16.688H339.789V23.856C339.789 24.3893 339.917 24.7733 340.173 25.008C340.429 25.2427 340.855 25.36 341.453 25.36H343.405ZM363.285 20.784C363.285 21.296 363.253 21.8293 363.189 22.384H350.805C350.89 23.4933 351.242 24.3467 351.861 24.944C352.501 25.52 353.279 25.808 354.197 25.808C355.562 25.808 356.511 25.232 357.045 24.08H362.869C362.57 25.2533 362.026 26.3093 361.237 27.248C360.469 28.1867 359.498 28.9227 358.325 29.456C357.151 29.9893 355.839 30.256 354.389 30.256C352.639 30.256 351.082 29.8827 349.717 29.136C348.351 28.3893 347.285 27.3227 346.517 25.936C345.749 24.5493 345.365 22.928 345.365 21.072C345.365 19.216 345.738 17.5947 346.485 16.208C347.253 14.8213 348.319 13.7547 349.685 13.008C351.05 12.2613 352.618 11.888 354.389 11.888C356.117 11.888 357.653 12.2507 358.997 12.976C360.341 13.7013 361.386 14.736 362.133 16.08C362.901 17.424 363.285 18.992 363.285 20.784ZM357.685 19.344C357.685 18.4053 357.365 17.6587 356.725 17.104C356.085 16.5493 355.285 16.272 354.325 16.272C353.407 16.272 352.629 16.5387 351.989 17.072C351.37 17.6053 350.986 18.3627 350.837 19.344H357.685ZM372.956 11.888C374.214 11.888 375.313 12.144 376.252 12.656C377.212 13.168 377.948 13.84 378.46 14.672V12.144H383.932V29.968C383.932 31.6107 383.601 33.0933 382.94 34.416C382.3 35.76 381.308 36.8267 379.964 37.616C378.641 38.4053 376.988 38.8 375.004 38.8C372.358 38.8 370.214 38.1707 368.572 36.912C366.929 35.6747 365.99 33.9893 365.756 31.856H371.164C371.334 32.5387 371.74 33.072 372.38 33.456C373.02 33.8613 373.809 34.064 374.748 34.064C375.878 34.064 376.774 33.7333 377.436 33.072C378.118 32.432 378.46 31.3973 378.46 29.968V27.44C377.926 28.272 377.19 28.9547 376.252 29.488C375.313 30 374.214 30.256 372.956 30.256C371.484 30.256 370.15 29.8827 368.956 29.136C367.761 28.368 366.812 27.2907 366.108 25.904C365.425 24.496 365.084 22.8747 365.084 21.04C365.084 19.2053 365.425 17.5947 366.108 16.208C366.812 14.8213 367.761 13.7547 368.956 13.008C370.15 12.2613 371.484 11.888 372.956 11.888ZM378.46 21.072C378.46 19.7067 378.076 18.6293 377.308 17.84C376.561 17.0507 375.644 16.656 374.556 16.656C373.468 16.656 372.54 17.0507 371.772 17.84C371.025 18.608 370.652 19.6747 370.652 21.04C370.652 22.4053 371.025 23.4933 371.772 24.304C372.54 25.0933 373.468 25.488 374.556 25.488C375.644 25.488 376.561 25.0933 377.308 24.304C378.076 23.5147 378.46 22.4373 378.46 21.072ZM396.018 30.256C394.269 30.256 392.69 29.8827 391.282 29.136C389.896 28.3893 388.797 27.3227 387.986 25.936C387.197 24.5493 386.802 22.928 386.802 21.072C386.802 19.2373 387.208 17.6267 388.018 16.24C388.829 14.832 389.938 13.7547 391.346 13.008C392.754 12.2613 394.333 11.888 396.082 11.888C397.832 11.888 399.41 12.2613 400.818 13.008C402.226 13.7547 403.336 14.832 404.146 16.24C404.957 17.6267 405.362 19.2373 405.362 21.072C405.362 22.9067 404.946 24.528 404.114 25.936C403.304 27.3227 402.184 28.3893 400.754 29.136C399.346 29.8827 397.768 30.256 396.018 30.256ZM396.018 25.52C397.064 25.52 397.949 25.136 398.674 24.368C399.421 23.6 399.794 22.5013 399.794 21.072C399.794 19.6427 399.432 18.544 398.706 17.776C398.002 17.008 397.128 16.624 396.082 16.624C395.016 16.624 394.13 17.008 393.426 17.776C392.722 18.5227 392.37 19.6213 392.37 21.072C392.37 22.5013 392.712 23.6 393.394 24.368C394.098 25.136 394.973 25.52 396.018 25.52ZM413.737 15.12C414.377 14.1387 415.177 13.3707 416.137 12.816C417.097 12.24 418.164 11.952 419.337 11.952V17.744H417.833C416.468 17.744 415.444 18.0427 414.761 18.64C414.079 19.216 413.737 20.24 413.737 21.712V30H408.265V12.144H413.737V15.12ZM424.705 10.288C423.745 10.288 422.955 10.0107 422.337 9.456C421.739 8.88 421.441 8.176 421.441 7.344C421.441 6.49067 421.739 5.78667 422.337 5.232C422.955 4.656 423.745 4.368 424.705 4.368C425.643 4.368 426.411 4.656 427.009 5.232C427.627 5.78667 427.937 6.49067 427.937 7.344C427.937 8.176 427.627 8.88 427.009 9.456C426.411 10.0107 425.643 10.288 424.705 10.288ZM427.425 12.144V30H421.953V12.144H427.425ZM448.222 20.784C448.222 21.296 448.19 21.8293 448.126 22.384H435.742C435.828 23.4933 436.18 24.3467 436.798 24.944C437.438 25.52 438.217 25.808 439.134 25.808C440.5 25.808 441.449 25.232 441.982 24.08H447.806C447.508 25.2533 446.964 26.3093 446.174 27.248C445.406 28.1867 444.436 28.9227 443.262 29.456C442.089 29.9893 440.777 30.256 439.326 30.256C437.577 30.256 436.02 29.8827 434.654 29.136C433.289 28.3893 432.222 27.3227 431.454 25.936C430.686 24.5493 430.302 22.928 430.302 21.072C430.302 19.216 430.676 17.5947 431.422 16.208C432.19 14.8213 433.257 13.7547 434.622 13.008C435.988 12.2613 437.556 11.888 439.326 11.888C441.054 11.888 442.59 12.2507 443.934 12.976C445.278 13.7013 446.324 14.736 447.07 16.08C447.838 17.424 448.222 18.992 448.222 20.784ZM442.622 19.344C442.622 18.4053 442.302 17.6587 441.662 17.104C441.022 16.5493 440.222 16.272 439.262 16.272C438.345 16.272 437.566 16.5387 436.926 17.072C436.308 17.6053 435.924 18.3627 435.774 19.344H442.622ZM458.373 30.256C456.816 30.256 455.429 29.9893 454.213 29.456C452.997 28.9227 452.037 28.1973 451.333 27.28C450.629 26.3413 450.234 25.296 450.149 24.144H455.557C455.621 24.7627 455.909 25.264 456.421 25.648C456.933 26.032 457.562 26.224 458.309 26.224C458.992 26.224 459.514 26.096 459.877 25.84C460.261 25.5627 460.453 25.2107 460.453 24.784C460.453 24.272 460.186 23.8987 459.653 23.664C459.12 23.408 458.256 23.1307 457.061 22.832C455.781 22.5333 454.714 22.224 453.861 21.904C453.008 21.5627 452.272 21.04 451.653 20.336C451.034 19.6107 450.725 18.64 450.725 17.424C450.725 16.4 451.002 15.472 451.557 14.64C452.133 13.7867 452.965 13.1147 454.053 12.624C455.162 12.1333 456.474 11.888 457.989 11.888C460.229 11.888 461.989 12.4427 463.269 13.552C464.57 14.6613 465.317 16.1333 465.509 17.968H460.453C460.368 17.3493 460.09 16.8587 459.621 16.496C459.173 16.1333 458.576 15.952 457.829 15.952C457.189 15.952 456.698 16.08 456.357 16.336C456.016 16.5707 455.845 16.9013 455.845 17.328C455.845 17.84 456.112 18.224 456.645 18.48C457.2 18.736 458.053 18.992 459.205 19.248C460.528 19.5893 461.605 19.9307 462.437 20.272C463.269 20.592 463.994 21.1253 464.613 21.872C465.253 22.5973 465.584 23.5787 465.605 24.816C465.605 25.8613 465.306 26.8 464.709 27.632C464.133 28.4427 463.29 29.0827 462.181 29.552C461.093 30.0213 459.824 30.256 458.373 30.256ZM473.75 32.24H505.75V0.24H473.75V32.24Z" fill="black"/>
</svg>
